<svg xmlns="http://www.w3.org/2000/svg" xmlns:xlink="http://www.w3.org/1999/xlink" xmlns:serif="http://www.serif.com/" viewBox="0 0 24 30" version="1.1" xml:space="preserve" style="" x="0px" y="0px" fill-rule="evenodd" clip-rule="evenodd" stroke-linejoin="round" stroke-miterlimit="2"><g><g><path d="M17.5,2.978c-0,-0.828 -0.672,-1.5 -1.5,-1.5l-8,0c-0.828,0 -1.5,0.672 -1.5,1.5l0,3.5c0,0.276 0.224,0.5 0.5,0.5l10,0c0.276,0 0.5,-0.224 0.5,-0.5l0,-3.5Zm-1,0l0,3c-0,0 -9,0 -9,0c0,0 0,-3 0,-3c0,-0.276 0.224,-0.5 0.5,-0.5c0,0 8,0 8,0c0.276,0 0.5,0.224 0.5,0.5Z"/><path d="M17,16.978l3,0c0.828,0 1.5,-0.671 1.5,-1.5l0,-8c-0,-0.828 -0.672,-1.5 -1.5,-1.5c-3.151,0 -12.849,0 -16,0c-0.828,0 -1.5,0.672 -1.5,1.5l0,8c0,0.829 0.672,1.5 1.5,1.5c0.714,0 1.765,0 3,0c0.276,0 0.5,-0.224 0.5,-0.5c0,-0.276 -0.224,-0.5 -0.5,-0.5l-3,0c-0.276,0 -0.5,-0.224 -0.5,-0.5c-0,0 0,-8 0,-8c0,-0.276 0.224,-0.5 0.5,-0.5l16,0c0.276,0 0.5,0.224 0.5,0.5c0,0 0,8 0,8c-0,0.276 -0.224,0.5 -0.5,0.5l-3,0c-0.276,0 -0.5,0.224 -0.5,0.5c0,0.276 0.224,0.5 0.5,0.5Z"/><path d="M17.5,12.978c0,-0.276 -0.224,-0.5 -0.5,-0.5l-10,0c-0.276,0 -0.5,0.224 -0.5,0.5l0,9c0,0.276 0.224,0.5 0.5,0.5l10,0c0.276,0 0.5,-0.224 0.5,-0.5l0,-9Zm-1,0.5l0,8c-0,0 -9,0 -9,0c0,0 0,-8 0,-8l9,0Z"/><path d="M18,12.478l-12,0c-0.276,0 -0.5,0.224 -0.5,0.5c0,0.276 0.224,0.5 0.5,0.5l12,0c0.276,0 0.5,-0.224 0.5,-0.5c0,-0.276 -0.224,-0.5 -0.5,-0.5Z"/><path d="M14,15.478l-4,0c-0.276,0 -0.5,0.224 -0.5,0.5c0,0.276 0.224,0.5 0.5,0.5l4,0c0.276,0 0.5,-0.224 0.5,-0.5c0,-0.276 -0.224,-0.5 -0.5,-0.5Z"/><path d="M14,18.478l-4,0c-0.276,0 -0.5,0.224 -0.5,0.5c0,0.276 0.224,0.5 0.5,0.5l4,0c0.276,0 0.5,-0.224 0.5,-0.5c0,-0.276 -0.224,-0.5 -0.5,-0.5Z"/><path d="M18,8.978l-2,0c-0.276,0 -0.5,0.224 -0.5,0.5c-0,0.276 0.224,0.5 0.5,0.5l2,0c0.276,0 0.5,-0.224 0.5,-0.5c-0,-0.276 -0.224,-0.5 -0.5,-0.5Z"/></g></g><text x="0" y="39" fill="#000000" font-size="5px" font-weight="bold" font-family="'Helvetica Neue', Helvetica, Arial-Unicode, Arial, Sans-serif">Created by Saktianto Adhi Pambudi</text><text x="0" y="44" fill="#000000" font-size="5px" font-weight="bold" font-family="'Helvetica Neue', Helvetica, Arial-Unicode, Arial, Sans-serif">from the Noun Project</text></svg>