<svg xmlns="http://www.w3.org/2000/svg" data-name="Layer 4" viewBox="0 0 24 30" x="0px" y="0px"><g><path d="M12,17a1,1,0,0,1-1-1V4a1,1,0,0,1,2,0V16A1,1,0,0,1,12,17Z"/><path d="M17,10a1,1,0,0,1-.707-.293L12,5.414,7.707,9.707A1,1,0,0,1,6.293,8.293l5-5a1,1,0,0,1,1.414,0l5,5A1,1,0,0,1,17,10Z"/><path d="M19,21H5a1,1,0,0,1,0-2H19a1,1,0,0,1,0,2Z"/></g><text x="0" y="39" fill="#000000" font-size="5px" font-weight="bold" font-family="'Helvetica Neue', Helvetica, Arial-Unicode, Arial, Sans-serif">Created by KP Arts</text><text x="0" y="44" fill="#000000" font-size="5px" font-weight="bold" font-family="'Helvetica Neue', Helvetica, Arial-Unicode, Arial, Sans-serif">from the Noun Project</text></svg>